<?xml version="1.0" encoding="UTF-8" standalone="no"?>
<svg
   version="1.1"
   width="232"
   height="232"
   id="svg11"
   sodipodi:docname="qr.svg"
   inkscape:version="1.1.2 (b8e25be833, 2022-02-05)"
   xmlns:inkscape="http://www.inkscape.org/namespaces/inkscape"
   xmlns:sodipodi="http://sodipodi.sourceforge.net/DTD/sodipodi-0.dtd"
   xmlns="http://www.w3.org/2000/svg"
   xmlns:svg="http://www.w3.org/2000/svg">
  <defs
     id="defs15" />
  <sodipodi:namedview
     id="namedview13"
     pagecolor="#ffffff"
     bordercolor="#666666"
     borderopacity="1.0"
     inkscape:pageshadow="2"
     inkscape:pageopacity="0.0"
     inkscape:pagecheckerboard="0"
     showgrid="false"
     inkscape:zoom="0.70710678"
     inkscape:cx="-253.85133"
     inkscape:cy="49.497475"
     inkscape:window-width="3840"
     inkscape:window-height="2036"
     inkscape:window-x="-12"
     inkscape:window-y="-12"
     inkscape:window-maximized="1"
     inkscape:current-layer="svg11" />
  <!-- Created with https://api.qrserver.com (QR Code API, see goQR.me/api for information) -->
  <title
     id="title2">QR Code</title>
  <desc
     id="desc4">https://david.kaufmann.dev/curriculum_vitae.pdf</desc>
  <path
     id="rect1611"
     style="fill:#ffffff;fill-opacity:1;stroke:none"
     d="M 56 0 L 56 8 L 56 16 L 56 24 L 56 32 L 56 40 L 56 56 L 0 56 L 0 64 L 40 64 L 40 88 L 48 88 L 48 80 L 56 80 L 56 72 L 48 72 L 48 64 L 88 64 L 88 72 L 80 72 L 80 88 L 88 88 L 88 80 L 96 80 L 112 80 L 112 72 L 96 72 L 96 48 L 104 48 L 104 40 L 96 40 L 96 32 L 88 32 L 88 40 L 88 48 L 88 56 L 80 56 L 80 32 L 64 32 L 64 24 L 72 24 L 72 16 L 64 16 L 64 8 L 72 8 L 72 0 L 56 0 z M 80 32 L 88 32 L 88 24 L 80 24 L 80 32 z M 96 32 L 112 32 L 112 16 L 112 8 L 104 8 L 104 16 L 96 16 L 96 32 z M 104 8 L 104 0 L 88 0 L 80 0 L 80 8 L 80 16 L 88 16 L 88 8 L 104 8 z M 112 8 L 128 8 L 128 0 L 112 0 L 112 8 z M 104 48 L 104 64 L 112 64 L 112 48 L 104 48 z M 48 88 L 48 96 L 64 96 L 64 88 L 48 88 z M 160 0 L 160 8 L 144 8 L 144 16 L 168 16 L 168 24 L 160 24 L 160 32 L 168 32 L 168 40 L 144 40 L 144 32 L 136 32 L 136 40 L 128 40 L 128 48 L 136 48 L 136 64 L 144 64 L 144 48 L 152 48 L 152 56 L 160 56 L 160 48 L 168 48 L 168 64 L 176 64 L 176 72 L 184 72 L 184 64 L 192 64 L 192 72 L 200 72 L 200 64 L 208 64 L 208 72 L 200 72 L 200 88 L 208 88 L 208 96 L 216 96 L 216 88 L 224 88 L 224 96 L 216 96 L 216 104 L 200 104 L 200 112 L 216 112 L 216 120 L 224 120 L 224 128 L 216 128 L 216 152 L 224 152 L 224 160 L 232 160 L 232 144 L 224 144 L 224 136 L 232 136 L 232 112 L 224 112 L 224 104 L 232 104 L 232 80 L 224 80 L 224 72 L 216 72 L 216 64 L 224 64 L 224 72 L 232 72 L 232 56 L 176 56 L 176 8 L 176 0 L 160 0 z M 216 152 L 208 152 L 208 136 L 200 136 L 200 168 L 208 168 L 208 160 L 216 160 L 216 152 z M 200 136 L 200 128 L 192 128 L 192 136 L 200 136 z M 200 128 L 216 128 L 216 120 L 200 120 L 200 128 z M 200 120 L 200 112 L 184 112 L 184 120 L 200 120 z M 200 104 L 200 88 L 184 88 L 184 80 L 168 80 L 168 88 L 176 88 L 176 104 L 200 104 z M 168 88 L 160 88 L 160 80 L 152 80 L 144 80 L 144 72 L 136 72 L 136 96 L 136 112 L 144 112 L 144 120 L 152 120 L 152 128 L 160 128 L 160 112 L 152 112 L 152 104 L 160 104 L 168 104 L 168 88 z M 160 128 L 160 136 L 184 136 L 184 128 L 160 128 z M 144 120 L 120 120 L 120 128 L 128 128 L 128 136 L 136 136 L 136 128 L 144 128 L 144 120 z M 128 136 L 120 136 L 120 144 L 128 144 L 128 136 z M 120 120 L 120 112 L 128 112 L 128 104 L 112 104 L 112 112 L 104 112 L 104 120 L 96 120 L 96 128 L 112 128 L 112 120 L 120 120 z M 96 128 L 88 128 L 88 136 L 96 136 L 96 128 z M 96 136 L 96 144 L 104 144 L 104 152 L 96 152 L 96 144 L 88 144 L 80 144 L 80 152 L 88 152 L 88 160 L 80 160 L 80 176 L 88 176 L 88 168 L 96 168 L 96 160 L 120 160 L 120 152 L 112 152 L 112 136 L 96 136 z M 120 160 L 120 168 L 96 168 L 96 176 L 104 176 L 104 192 L 112 192 L 112 184 L 120 184 L 120 176 L 128 176 L 128 168 L 136 168 L 136 160 L 144 160 L 144 168 L 152 168 L 152 176 L 160 176 L 160 160 L 152 160 L 152 152 L 168 152 L 168 144 L 144 144 L 144 152 L 128 152 L 128 160 L 120 160 z M 168 152 L 168 160 L 176 160 L 176 152 L 168 152 z M 144 168 L 136 168 L 136 176 L 144 176 L 144 168 z M 136 176 L 128 176 L 128 184 L 120 184 L 120 192 L 144 192 L 144 200 L 136 200 L 136 208 L 128 208 L 128 216 L 120 216 L 120 224 L 128 224 L 136 224 L 144 224 L 144 232 L 152 232 L 152 200 L 160 200 L 160 192 L 152 192 L 152 184 L 136 184 L 136 176 z M 160 200 L 160 208 L 160 216 L 168 216 L 168 208 L 200 208 L 200 200 L 160 200 z M 200 200 L 208 200 L 208 192 L 216 192 L 216 200 L 224 200 L 224 184 L 232 184 L 232 176 L 216 176 L 216 184 L 200 184 L 200 192 L 200 200 z M 120 224 L 112 224 L 112 232 L 120 232 L 120 224 z M 112 224 L 112 216 L 112 208 L 128 208 L 128 200 L 112 200 L 104 200 L 104 192 L 96 192 L 96 176 L 88 176 L 88 192 L 80 192 L 80 184 L 72 184 L 64 184 L 64 168 L 32 168 L 32 152 L 40 152 L 40 160 L 56 160 L 56 152 L 48 152 L 48 144 L 24 144 L 24 152 L 24 168 L 16 168 L 16 144 L 24 144 L 24 112 L 16 112 L 16 128 L 0 128 L 0 136 L 8 136 L 8 168 L 0 168 L 0 176 L 56 176 L 56 232 L 64 232 L 64 192 L 72 192 L 72 208 L 80 208 L 80 216 L 96 216 L 96 208 L 88 208 L 88 200 L 96 200 L 96 208 L 104 208 L 104 216 L 96 216 L 96 224 L 112 224 z M 48 144 L 64 144 L 64 136 L 72 136 L 72 144 L 80 144 L 80 128 L 88 128 L 88 120 L 96 120 L 96 104 L 88 104 L 88 112 L 80 112 L 80 120 L 72 120 L 72 112 L 64 112 L 64 120 L 40 120 L 40 112 L 32 112 L 32 128 L 40 128 L 40 136 L 48 136 L 48 128 L 56 128 L 56 136 L 48 136 L 48 144 z M 64 112 L 64 104 L 48 104 L 48 112 L 64 112 z M 88 104 L 88 96 L 80 96 L 80 104 L 88 104 z M 64 168 L 72 168 L 72 160 L 64 160 L 64 168 z M 72 160 L 80 160 L 80 152 L 72 152 L 72 160 z M 136 72 L 136 64 L 120 64 L 120 72 L 120 80 L 128 80 L 128 72 L 136 72 z M 144 72 L 152 72 L 152 64 L 144 64 L 144 72 z M 168 64 L 160 64 L 160 72 L 168 72 L 168 64 z M 128 48 L 120 48 L 120 56 L 128 56 L 128 48 z M 128 40 L 128 32 L 120 32 L 120 40 L 128 40 z M 144 32 L 152 32 L 152 24 L 144 24 L 144 32 z M 144 24 L 144 16 L 136 16 L 136 24 L 144 24 z M 8 8 L 8 16 L 8 48 L 16 48 L 48 48 L 48 40 L 48 16 L 48 8 L 40 8 L 16 8 L 8 8 z M 184 8 L 184 16 L 184 48 L 192 48 L 224 48 L 224 40 L 224 16 L 224 8 L 216 8 L 192 8 L 184 8 z M 16 16 L 40 16 L 40 40 L 16 40 L 16 16 z M 192 16 L 216 16 L 216 40 L 192 40 L 192 16 z M 64 40 L 72 40 L 72 56 L 64 56 L 64 40 z M 8 72 L 8 80 L 8 88 L 16 88 L 16 80 L 32 80 L 32 72 L 8 72 z M 16 88 L 16 96 L 32 96 L 32 88 L 16 88 z M 32 96 L 32 104 L 40 104 L 40 96 L 32 96 z M 16 96 L 8 96 L 8 88 L 0 88 L 0 112 L 8 112 L 8 104 L 16 104 L 16 96 z M 96 88 L 96 96 L 120 96 L 120 88 L 96 88 z M 168 112 L 168 120 L 176 120 L 176 112 L 168 112 z M 184 152 L 184 160 L 192 160 L 192 152 L 184 152 z M 168 168 L 168 176 L 168 192 L 176 192 L 184 192 L 192 192 L 192 184 L 192 176 L 192 168 L 184 168 L 168 168 z M 176 176 L 184 176 L 184 184 L 176 184 L 176 176 z M 8 184 L 8 192 L 8 224 L 16 224 L 48 224 L 48 216 L 48 192 L 48 184 L 40 184 L 16 184 L 8 184 z M 16 192 L 40 192 L 40 216 L 16 216 L 16 192 z M 224 208 L 224 224 L 216 224 L 216 232.5 L 232 232.5 L 232 224 L 232 208 L 224 208 z M 216 224 L 216 216 L 208 216 L 208 224 L 216 224 z M 208 224 L 200 224 L 200 232 L 208 232 L 208 224 z M 176 216 L 176 224 L 160 224 L 160 232 L 184 232 L 184 224 L 192 224 L 192 216 L 176 216 z M 72 224 L 72 232 L 88 232 L 88 224 L 72 224 z " />
</svg>
